    <svg xmlns="http://www.w3.org/2000/svg" viewBox="0 0 1440 320"><path fill="#0099ff" fill-opacity="1" d="M0,224L16,202.7C32,181,64,139,96,128C128,117,160,139,192,144C224,149,256,139,288,149.3C320,160,352,192,384,197.3C416,203,448,181,480,170.7C512,160,544,160,576,181.3C608,203,640,245,672,229.3C704,213,736,139,768,117.3C800,96,832,128,864,144C896,160,928,160,960,165.3C992,171,1024,181,1056,192C1088,203,1120,213,1152,229.3C1184,245,1216,267,1248,240C1280,213,1312,139,1344,96C1376,53,1408,43,1424,37.3L1440,32L1440,320L1424,320C1408,320,1376,320,1344,320C1312,320,1280,320,1248,320C1216,320,1184,320,1152,320C1120,320,1088,320,1056,320C1024,320,992,320,960,320C928,320,896,320,864,320C832,320,800,320,768,320C736,320,704,320,672,320C640,320,608,320,576,320C544,320,512,320,480,320C448,320,416,320,384,320C352,320,320,320,288,320C256,320,224,320,192,320C160,320,128,320,96,320C64,320,32,320,16,320L0,320Z"></path></svg>
